<?xml version="1.0" encoding="UTF-8"?>
<svg id="_레이어_2" data-name="레이어 2" xmlns="http://www.w3.org/2000/svg" viewBox="0 0 32 32">
  <g id="_레이어_1-2" data-name="레이어 1">
    <g>
      <rect width="32" height="32" rx="5" ry="5" style="fill: #9c3782;"/>
      <g>
        <path d="m26.18,22.55l-.11-.25c-.24-.54-.87-.78-1.41-.54l-.98.44-2.61-5.78c-.17-.38-.56-.63-.97-.63h-6.16l-.05-.95h3.98c.59,0,1.07-.48,1.07-1.07v-.27c0-.59-.48-1.07-1.07-1.07h-4.11l-.22-3.91c.78-.42,1.28-1.23,1.28-2.11,0-1.33-1.1-2.41-2.46-2.41s-2.45,1.08-2.45,2.4c0,.86.46,1.65,1.22,2.08l.48,8.7c.03.57.5,1.01,1.07,1.01h6.19c.22,0,.43.13.52.34l2.65,5.88c.18.39.57.63.98.63.15,0,.29-.03.43-.09l2.2-.99c.26-.11.46-.32.56-.59.1-.27.1-.56-.02-.82Z" style="fill: #fff;"/>
        <path d="m19.72,22.3c-.11-.24-.34-.39-.6-.39,0,0,0,0,0,0-.26,0-.49.15-.6.4-.86,2.01-2.8,3.28-4.97,3.28-.06,0-.13,0-.19,0-2.88-.1-5.16-2.44-5.21-5.32-.02-1.54.62-3.02,1.76-4.06.24-.21.37-.52.35-.85l-.06-1.12c-.01-.24-.15-.45-.36-.56-.22-.11-.47-.09-.67.05-2.14,1.46-3.42,3.87-3.43,6.45,0,2.08.81,4.05,2.29,5.53,1.48,1.48,3.44,2.3,5.52,2.3,2.68,0,5.14-1.35,6.59-3.61.19-.3.22-.68.07-1.02l-.48-1.07Z" style="fill: #fff;"/>
      </g>
    </g>
  </g>
</svg>