<?xml version="1.0" encoding="UTF-8"?>
<svg id="_레이어_2" data-name="레이어 2" xmlns="http://www.w3.org/2000/svg" viewBox="0 0 25 31.16">
  <g id="_레이어_1-2" data-name="레이어 1">
    <path d="m12.5,1.5c5.33,0,11,3.96,11,11.3,0,4.51-3.7,10.02-11,16.38C5.2,22.82,1.5,17.31,1.5,12.8,1.5,5.46,7.17,1.5,12.5,1.5m0,17.09c3.36,0,6.09-2.73,6.09-6.09s-2.73-6.09-6.09-6.09-6.09,2.73-6.09,6.09,2.73,6.09,6.09,6.09M12.5.5C6.2.5.5,5.33.5,12.8c0,4.98,4,10.88,12,17.7,8-6.82,12-12.72,12-17.7C24.5,5.33,18.8.5,12.5.5h0Zm0,17.09c-2.81,0-5.09-2.28-5.09-5.09s2.28-5.09,5.09-5.09,5.09,2.28,5.09,5.09-2.28,5.09-5.09,5.09h0Z" style="fill: #888;"/>
  </g>
</svg>