<?xml version="1.0" encoding="UTF-8"?>
<svg id="_레이어_2" data-name="레이어 2" xmlns="http://www.w3.org/2000/svg" viewBox="0 0 36 36">
  <g id="_레이어_1-2" data-name="레이어 1">
    <g>
      <path d="m18,35.5c-3.95,0-7.7-1.3-10.82-3.77-1.08-.85-2.06-1.83-2.91-2.91-2.47-3.12-3.77-6.87-3.77-10.82C.5,8.35,8.35.5,18,.5c3.95,0,7.69,1.3,10.82,3.77,1.08.85,2.06,1.83,2.91,2.91,2.47,3.13,3.77,6.87,3.77,10.82,0,9.65-7.85,17.5-17.5,17.5Zm-7.66-6.31c2.27,1.57,4.91,2.39,7.66,2.39,7.49,0,13.59-6.09,13.59-13.59,0-2.75-.83-5.39-2.39-7.66L10.34,29.19Zm7.66-24.78c-7.49,0-13.59,6.09-13.59,13.59,0,2.75.83,5.39,2.39,7.66L25.66,6.8c-2.27-1.57-4.91-2.39-7.66-2.39Z" style="fill: #e1642e;"/>
      <path d="m18,1c3.97,0,7.61,1.38,10.51,3.66,1.05.83,2,1.78,2.83,2.82,2.29,2.9,3.67,6.54,3.67,10.51,0,9.37-7.63,17-17,17-3.97,0-7.61-1.38-10.51-3.66-1.05-.83-2-1.78-2.82-2.82-2.29-2.9-3.66-6.54-3.66-10.51C1,8.63,8.63,1,18,1M6.74,26.43l8.43-8.43,2.82-2.83,8.43-8.43c-2.35-1.77-5.27-2.83-8.43-2.83-7.77,0-14.09,6.32-14.09,14.09,0,3.16,1.06,6.08,2.83,8.43m11.26,5.65c7.77,0,14.09-6.32,14.09-14.09,0-3.16-1.06-6.08-2.83-8.43l-8.43,8.43-2.82,2.82-8.43,8.43c2.35,1.77,5.27,2.83,8.43,2.83M18,0C8.07,0,0,8.07,0,18c0,4.07,1.34,7.92,3.88,11.13.88,1.11,1.88,2.11,2.99,2.99,3.21,2.54,7.06,3.88,11.13,3.88,9.93,0,18-8.07,18-18,0-4.07-1.34-7.92-3.88-11.13-.88-1.11-1.88-2.11-2.99-2.99-3.21-2.54-7.06-3.88-11.13-3.88h0ZM6.89,24.87c-1.29-2.07-1.97-4.43-1.97-6.87,0-7.22,5.87-13.09,13.09-13.09,2.45,0,4.8.68,6.87,1.97l-7.58,7.58-2.82,2.83-7.58,7.58h0Zm4.24,4.24l7.58-7.58,2.82-2.82,7.58-7.58c1.29,2.07,1.97,4.43,1.97,6.88,0,7.22-5.87,13.09-13.09,13.09-2.45,0-4.8-.68-6.87-1.97h0Z" style="fill: #fff;"/>
    </g>
  </g>
</svg>